<?xml version="1.0" encoding="UTF-8" standalone="no"?>
<svg
   xmlns="http://www.w3.org/2000/svg"
   version="1.1"
   viewBox="0 0 257.96875 47.625"
   height="180"
   width="975">
  <g aria-label="Y"
    transform="translate(-53.795325,-14.498067)"
    style="font-style:normal;font-weight:normal;font-size:10.5833px;line-height:1.25;font-family:sans-serif;white-space:pre;shape-inside:url(#rect951);fill:#ff3f16;fill-opacity:1;stroke:none">
    <path
      d="m 95.227578,50.96377 2.413018,-11.636121 c -1.785057,-2.768133 -3.466633,-5.49746 -5.044728,-8.187981 -1.578094,-2.690521 -3.065642,-1.095969 -4.462644,-3.683009 h 4.423839 c 0.983075,2.121373 2.082566,0.04822 3.298475,2.247202 1.215909,2.173113 2.470624,9.089289 3.764144,11.10718 1.267648,-2.017891 2.509428,-8.934067 3.725338,-11.10718 1.21591,-2.198984 2.32833,-0.125829 3.33728,-2.247202 h 4.19101 c -1.39701,2.58704 -2.88456,0.992488 -4.46265,3.683009 -1.57809,2.664651 -3.24673,5.368108 -5.00592,8.11037 l 2.37422,11.713732 z"
      style="font-size:38.8056px;fill:#ff3f16;fill-opacity:1" />
  </g>
  <g
    aria-label="E"
    transform="translate(-79.657457,-15.351991)"
    style="font-style:normal;font-weight:normal;font-size:42.3333px;line-height:1.25;font-family:sans-serif;white-space:pre;shape-inside:url(#rect966);fill:#ff3f16;fill-opacity:1;stroke:none">
    <path
      d="m 102.12439,54.992661 -1.5875,-28.278645 24.92234,0.517707 -7.04004,1.07886 -11.6593,0.858829 -0.52917,8.720661 12.27666,-0.529167 6.97444,4.304059 -19.2511,-1.933395 2.11667,10.15996 15.91732,-1.058333 -3.175,2.984497 z"
      style="font-style:normal;font-weight:normal;font-size:42.3333px;line-height:1.25;font-family:sans-serif;white-space:pre;shape-inside:url(#rect966);fill:#ff3f16;fill-opacity:1;stroke:none" />
  </g>
  <g
    aria-label="E"
    transform="matrix(-1,0,0,1,171.07334,-15.351991)"
    style="font-style:normal;font-weight:normal;font-size:42.3333px;line-height:1.25;font-family:sans-serif;white-space:pre;shape-inside:url(#rect970);fill:#ff3f16;fill-opacity:1;stroke:none">
    <path
      d="m 102.12439,54.992661 -1.5875,-28.278645 24.73468,0.517707 -7.0852,1.07886 -11.42648,0.858796 -0.52917,8.720661 12.27666,-0.529167 6.7416,4.304092 -19.01826,-1.933428 2.11667,10.159993 15.91732,-1.058333 -3.175,2.984497 z"
      style="font-style:normal;font-weight:normal;font-size:42.3333px;line-height:1.25;font-family:sans-serif;white-space:pre;shape-inside:url(#rect970);fill:#ff3f16;fill-opacity:1;stroke:none" />
  </g>
</svg>
