<?xml version="1.0" encoding="UTF-8" standalone="no"?>
<svg
   version="1.1"
   viewBox="0 0 70.823689 32.511977"
   height="122.87991"
   width="267.68008"
   id="svg52808"
   sodipodi:docname="eye-closure-logo.svg"
   inkscape:version="1.1 (c68e22c387, 2021-05-23)"
   xmlns:inkscape="http://www.inkscape.org/namespaces/inkscape"
   xmlns:sodipodi="http://sodipodi.sourceforge.net/DTD/sodipodi-0.dtd"
   xmlns="http://www.w3.org/2000/svg"
   xmlns:svg="http://www.w3.org/2000/svg">
  <defs
     id="defs52812" />
  <sodipodi:namedview
     id="namedview52810"
     pagecolor="#ffffff"
     bordercolor="#666666"
     borderopacity="1.0"
     inkscape:pageshadow="2"
     inkscape:pageopacity="0.0"
     inkscape:pagecheckerboard="0"
     showgrid="false"
     fit-margin-top="0"
     fit-margin-left="0"
     fit-margin-right="0"
     fit-margin-bottom="0"
     inkscape:zoom="3.0461538"
     inkscape:cx="470.10101"
     inkscape:cy="231.76768"
     inkscape:window-width="3840"
     inkscape:window-height="2126"
     inkscape:window-x="0"
     inkscape:window-y="0"
     inkscape:window-maximized="1"
     inkscape:current-layer="svg52808" />
  <g
     aria-label="Closure"
     transform="translate(-32.497975,-76.336242)"
     style="font-style:normal;font-weight:normal;font-size:10.5833px;line-height:1.25;font-family:sans-serif;white-space:pre;shape-inside:url(#rect119);fill:#000000;fill-opacity:1;stroke:none"
     id="g52793">
    <path
       d="m 92.823341,107.26071 c -2.06023,0 -3.93702,-0.33866 -5.63036,-1.01599 -1.69334,-0.67734 -3.1468,-1.66511 -4.36036,-2.96334 -3.18024,-2.80665 -7.51421,-8.343548 -7.51421,-11.345316 0,-3.001768 4.5585,-7.92087 7.85288,-11.345325 1.27,-1.298221 2.75168,-2.285998 4.44502,-2.963331 1.69334,-0.677333 3.49957,-1.015999 5.41869,-1.015999 1.21356,0 2.30012,0.08467 3.25967,0.254 0.98777,0.169333 1.83444,0.366889 2.54,0.592666 0.73377,0.225777 1.326439,0.451555 1.777999,0.677333 0.45155,0.225777 0.762,0.39511 0.93133,0.507999 l -1.18533,3.386664 c -0.254,-0.169333 -0.620889,-0.352777 -1.100669,-0.550332 -0.47978,-0.197556 -1.03011,-0.395112 -1.651,-0.592667 -0.59267,-0.197555 -1.25589,-0.352777 -1.98966,-0.465666 -0.70556,-0.141111 -1.42523,-0.211666 -2.159,-0.211666 -1.55223,0 -2.94923,0.268111 -4.19102,0.804332 -1.24178,0.536222 -2.30012,1.312333 -3.17502,2.328332 -0.87489,1.015999 -1.55223,2.257776 -2.03201,3.72533 -0.45155,1.439333 -0.67733,3.062109 -0.67733,4.86833 0,1.749777 0.19756,3.344331 0.59267,4.78366 0.42333,1.439321 1.04423,2.681101 1.86267,3.725326 0.81845,1.016 1.83446,1.80622 3.04802,2.37067 1.24179,0.56444 2.68112,0.84666 4.31802,0.84666 1.89089,0 3.45722,-0.19755 4.69899,-0.59266 1.24178,-0.39511 2.173109,-0.74789 2.793999,-1.05833 l 1.05833,3.38666 c -0.19755,0.14111 -0.55033,0.32455 -1.05833,0.55033 -0.508,0.19756 -1.142999,0.39511 -1.904999,0.59267 -0.762,0.19755 -1.651,0.36689 -2.66699,0.508 -1.016,0.14111 -2.11667,0.21166 -3.302,0.21166 z"
       style="font-style:normal;font-variant:normal;font-weight:normal;font-stretch:normal;font-size:42.3333px;font-family:Carlito;-inkscape-font-specification:Carlito;fill:#ff8080"
       id="path52789" />
    <path
       d="m 42.975711,107.26071 c 2.06023,0 3.93702,-0.33866 5.63036,-1.01599 1.69334,-0.67734 3.1468,-1.66511 4.36036,-2.96334 3.18024,-2.80665 7.51421,-8.343548 7.51421,-11.345316 0,-3.001768 -4.5585,-7.92087 -7.85288,-11.345325 -1.27,-1.298221 -2.75168,-2.285998 -4.44502,-2.963331 -1.69334,-0.677333 -3.49957,-1.015999 -5.41869,-1.015999 -1.21356,0 -2.30012,0.08467 -3.25967,0.254 -0.98777,0.169333 -1.83444,0.366889 -2.54,0.592666 -0.73377,0.225777 -1.32644,0.451555 -1.778,0.677333 -0.45155,0.225777 -0.762007,0.39511 -0.931337,0.507999 l 1.185337,3.386664 c 0.254,-0.169333 0.62089,-0.352777 1.10067,-0.550332 0.47978,-0.197556 1.03011,-0.395112 1.651,-0.592667 0.59267,-0.197555 1.25589,-0.352777 1.98966,-0.465666 0.70556,-0.141111 1.42523,-0.211666 2.159,-0.211666 1.55223,0 2.94923,0.268111 4.19102,0.804332 1.24178,0.536222 2.30012,1.312333 3.17502,2.328332 0.87489,1.015999 1.55223,2.257776 2.03201,3.72533 0.45155,1.439333 0.67733,3.062109 0.67733,4.86833 0,1.749777 -0.19756,3.344331 -0.59267,4.78366 -0.42333,1.439321 -1.04423,2.681101 -1.86267,3.725326 -0.81845,1.016 -1.83446,1.80622 -3.04802,2.37067 -1.24179,0.56444 -2.68112,0.84666 -4.31802,0.84666 -1.89089,0 -3.45722,-0.19755 -4.69899,-0.59266 -1.24178,-0.39511 -2.17311,-0.74789 -2.794,-1.05833 l -1.058337,3.38666 c 0.19755,0.14111 0.550337,0.32455 1.058337,0.55033 0.508,0.19756 1.143,0.39511 1.905,0.59267 0.762,0.19755 1.651,0.36689 2.66699,0.508 1.016,0.14111 2.11667,0.21166 3.302,0.21166 z"
       style="font-style:normal;font-variant:normal;font-weight:normal;font-stretch:normal;font-size:42.3333px;font-family:Carlito;-inkscape-font-specification:Carlito;fill:#ff8080"
       id="path52791" />
  </g>
  <g
     id="g1016"
     transform="translate(-10.296098,-7.128692)"
     style="display:inline">
    <g
       aria-label="Y"
       transform="translate(-53.795325,-14.498067)"
       style="font-style:normal;font-weight:normal;font-size:10.5833px;line-height:1.25;font-family:sans-serif;white-space:pre;shape-inside:url(#rect951);fill:#ff3f16;fill-opacity:1;stroke:none"
       id="g52797">
      <path
         d="m 96.053096,50.115606 1.5875,-10.787957 c -1.785057,-2.768133 -3.466633,-5.49746 -5.044728,-8.187981 -1.578094,-2.690521 -3.065642,-5.329302 -4.462644,-7.916342 h 4.423839 c 0.983075,2.121373 2.082566,4.281551 3.298475,6.480535 1.215909,2.173113 2.470624,4.268616 3.764144,6.286507 1.267648,-2.017891 2.509428,-4.113394 3.725338,-6.286507 1.21591,-2.198984 2.32833,-4.359162 3.33728,-6.480535 h 4.19101 c -1.39701,2.58704 -2.88456,5.225821 -4.46265,7.916342 -1.57809,2.664651 -3.24673,5.368108 -5.00592,8.11037 l 1.5875,10.865568 z"
         style="font-size:38.8056px;fill:#ff3f16;fill-opacity:1"
         id="path52795" />
    </g>
    <g
       aria-label="E"
       transform="translate(-79.657457,-15.351991)"
       style="font-style:normal;font-weight:normal;font-size:42.3333px;line-height:1.25;font-family:sans-serif;white-space:pre;shape-inside:url(#rect966);fill:#ff3f16;fill-opacity:1;stroke:none"
       id="g52801">
      <path
         d="m 91.541055,54.992661 -1.5875,-32.511978 28.465645,1.5966 -1.95574,4.033797 -21.874408,-1.058334 1.058333,9.249827 12.276655,1.058333 v 1.312331 L 95.647385,39.73157 v 10.15996 l 18.033985,-1.058333 -3.175,2.984497 z"
         style="font-style:normal;font-weight:normal;font-size:42.3333px;line-height:1.25;font-family:sans-serif;white-space:pre;shape-inside:url(#rect966);fill:#ff3f16;fill-opacity:1;stroke:none"
         id="path52799" />
    </g>
    <g
       aria-label="E"
       transform="matrix(-1,0,0,1,171.07334,-15.351991)"
       style="font-style:normal;font-weight:normal;font-size:42.3333px;line-height:1.25;font-family:sans-serif;white-space:pre;shape-inside:url(#rect970);fill:#ff3f16;fill-opacity:1;stroke:none"
       id="g52805">
      <path
         d="m 91.541055,54.992661 -1.5875,-32.511978 28.232805,1.5966 -1.73308,4.033764 -21.864228,-1.058334 1.058333,9.249827 12.276655,1.058333 v 1.312331 L 95.647385,39.731537 V 49.89153 l 18.033985,-1.058333 -3.175,2.984497 z"
         style="font-style:normal;font-weight:normal;font-size:42.3333px;line-height:1.25;font-family:sans-serif;white-space:pre;shape-inside:url(#rect970);fill:#ff3f16;fill-opacity:1;stroke:none"
         id="path52803" />
    </g>
  </g>
</svg>
