<?xml version="1.0" encoding="UTF-8" standalone="no"?>
<svg xmlns="http://www.w3.org/2000/svg" version="1.1"
   viewBox="0 0 257.96875 47.625" height="180" width="975">
  <g transform="translate(0,0.2031945)">
    <g aria-label="Y" transform="translate(-53.795325,-14.498067)"
      style="font-style:normal;font-weight:normal;font-size:10.5833px;line-height:1.25;font-family:sans-serif;white-space:pre;shape-inside:url(#rect951);fill:#ff3f16;fill-opacity:1;stroke:none">
      <path
        d="m 96.053096,50.115606 1.5875,-10.787957 c -1.785057,-2.768133 -3.466633,-5.49746 -5.044728,-8.187981 -1.578094,-2.690521 -3.065642,-5.329302 -4.462644,-7.916342 h 4.423839 c 0.983075,2.121373 2.082566,4.281551 3.298475,6.480535 1.215909,2.173113 2.470624,4.268616 3.764144,6.286507 1.267648,-2.017891 2.509428,-4.113394 3.725338,-6.286507 1.21591,-2.198984 2.32833,-4.359162 3.33728,-6.480535 h 4.19101 c -1.39701,2.58704 -2.88456,5.225821 -4.46265,7.916342 -1.57809,2.664651 -3.24673,5.368108 -5.00592,8.11037 l 1.5875,10.865568 z"
        style="font-size:38.8056px;fill:#ff3f16;fill-opacity:1"/>
    </g>
    <g aria-label="E" transform="translate(-79.657457,-15.351991)"
      style="font-style:normal;font-weight:normal;font-size:42.3333px;line-height:1.25;font-family:sans-serif;white-space:pre;shape-inside:url(#rect966);fill:#ff3f16;fill-opacity:1;stroke:none">
      <path
        d="m 91.541055,54.992661 -1.5875,-32.511978 28.465645,1.5966 -1.95574,4.033797 -21.874408,-1.058334 1.058333,9.249827 12.276655,1.058333 v 1.312331 L 95.647385,39.73157 v 10.15996 l 18.033985,-1.058333 -3.175,2.984497 z"
        style="font-style:normal;font-weight:normal;font-size:42.3333px;line-height:1.25;font-family:sans-serif;white-space:pre;shape-inside:url(#rect966);fill:#ff3f16;fill-opacity:1;stroke:none"/>
    </g>
    <g aria-label="E" transform="matrix(-1,0,0,1,171.07334,-15.351991)"
      style="font-style:normal;font-weight:normal;font-size:42.3333px;line-height:1.25;font-family:sans-serif;white-space:pre;shape-inside:url(#rect970);fill:#ff3f16;fill-opacity:1;stroke:none">
      <path
        d="m 91.541055,54.992661 -1.5875,-32.511978 28.232805,1.5966 -1.73308,4.033764 -21.864228,-1.058334 1.058333,9.249827 12.276655,1.058333 v 1.312331 L 95.647385,39.731537 V 49.89153 l 18.033985,-1.058333 -3.175,2.984497 z"
        style="font-style:normal;font-weight:normal;font-size:42.3333px;line-height:1.25;font-family:sans-serif;white-space:pre;shape-inside:url(#rect970);fill:#ff3f16;fill-opacity:1;stroke:none"/>
    </g>
  </g>
  <text
    style="font-style:normal;font-variant:normal;font-weight:normal;font-stretch:normal;font-size:45.8611px;line-height:1.25;font-family:Baumans;-inkscape-font-specification:'Baumans, Normal';font-variant-ligatures:normal;font-variant-caps:normal;font-variant-numeric:normal;font-variant-east-asian:normal;letter-spacing:1.5875px;white-space:pre;shape-inside:url(#rect883);fill:#ff8080;fill-opacity:1;stroke:none;"
    transform="translate(1.0583334,-4.7625002)">
    <tspan x="92.126953" y="44.272073"
      style="font-style:normal;font-variant:normal;font-weight:normal;font-stretch:normal;font-size:45.8611px;font-family:Baumans;-inkscape-font-specification:'Baumans, Normal';font-variant-ligatures:normal;font-variant-caps:normal;font-variant-numeric:normal;font-variant-east-asian:normal;fill:#ff8080;fill-opacity:1"
    >Closure</tspan>
  </text>
</svg>
